<svg width="80" height="80" viewBox="0 0 80 80" fill="none" xmlns="http://www.w3.org/2000/svg">
<defs>
<linearGradient id="bg4" x1="10" y1="10" x2="70" y2="70" gradientUnits="userSpaceOnUse">
<stop stop-color="#FFF4E5"/>
<stop offset="1" stop-color="#E0F2FE"/>
</linearGradient>
</defs>
<rect x="2" y="2" width="76" height="76" rx="38" fill="url(#bg4)"/>
<circle cx="40" cy="40.5" r="15" fill="#C98D6B"/>
<path d="M24 36C24 25 31 18 40 18C49 18 56 25 56 36V38H24V36Z" fill="#111827"/>
<circle cx="34.5" cy="40.5" r="1.8" fill="#0F172A"/>
<circle cx="45.5" cy="40.5" r="1.8" fill="#0F172A"/>
<path d="M35 47.5C36.6 49.2 38.2 50 40 50C41.8 50 43.4 49.2 45 47.5" stroke="#7A4B33" stroke-width="2" stroke-linecap="round"/>
<path d="M20 78C21 64.2 29.6 56 40 56C50.4 56 59 64.2 60 78" fill="#0F766E"/>
<path d="M31 57H49L46 63H34L31 57Z" fill="#1F2937"/>
</svg>
